<?xml version="1.0" encoding="UTF-8" standalone="no"?>
<svg
   height="245pt"
   version="1.1"
   viewBox="0 0 245 245"
   width="245pt"
   id="svg29"
   xmlns="http://www.w3.org/2000/svg"
   xmlns:svg="http://www.w3.org/2000/svg">
  <defs
     id="defs29" />
  <g
     id="g29"
     transform="translate(-134.19952,-130.20027)">
    <path
       d="m 218.87,136.09 c 25.53,-8.12 53.76,-7.66 78.99,1.37 40.67,14.45 72.34,51.97 78.96,94.74 4.41,26.01 -0.42,53.35 -13.02,76.49 -11.68,21.43 -29.66,39.51 -51.38,50.75 -23.69,12.43 -51.63,16.7 -77.93,11.75 -22.94,-4.12 -44.63,-15.07 -61.49,-31.18 -21.6,-20.23 -36.09,-48.55 -38.11,-78.2 1.65,-7.12 1.54,-14.47 0.05,-21.6 1.66,-21.22 9.83,-41.75 22.14,-59.02 15.06,-21.14 37.02,-37.3 61.79,-45.1 z"
       fill="#172e47"
       opacity="1"
       stroke="#172e47"
       stroke-width="0.25"
       id="path2" />
    <path
       d="m 240.63,137.93 c 16.81,-1.75 34.14,-1.11 50.35,4.04 27.2,8.33 50.71,27.46 65.17,51.87 9.98,16.92 15.58,36.45 15.71,56.12 0.66,25.73 -8.31,51.39 -24.16,71.58 -14.69,19.27 -35.6,33.81 -58.92,40.48 -25.22,7.53 -52.98,5.83 -77.22,-4.37 -22.94,-9.81 -42.71,-27.13 -55.15,-48.8 C 143.77,288.1 138.8,263.07 141.45,239 c 2.74,-25.97 15.13,-50.56 33.54,-68.97 17.62,-17.47 40.99,-29.01 65.64,-32.1 z"
       fill="#fefefe"
       opacity="1"
       stroke="#fefefe"
       stroke-width="0.25"
       id="path3" />
    <path
       d="m 243.63,169.09 c 2.02,-9.29 7.56,-17.27 12.79,-25.03 5.06,7.76 10.44,15.66 12.67,24.78 1.9,8.2 -5.59,17.53 -14.22,16.11 -7.44,-0.76 -12.75,-8.65 -11.24,-15.86 z"
       fill="#152b44"
       opacity="1"
       stroke="#152b44"
       stroke-width="0.25"
       id="path4" />
    <path
       d="m 319.43,197.43 c 7.79,-5.11 17.48,-5.44 26.49,-5.94 -2.86,7.61 -5.66,15.26 -8.96,22.7 -1.91,4.26 -6.12,7.82 -10.96,7.74 -6.25,0.39 -12.18,-4.69 -13.04,-10.83 -0.95,-5.34 1.97,-10.83 6.47,-13.67 z"
       fill="#162b44"
       opacity="1"
       stroke="#162b44"
       stroke-width="0.25"
       id="path5" />
    <path
       d="m 166.68,191.47 c 8.43,0.53 17.37,0.63 24.97,4.81 4.57,2.55 8.48,7.27 8.22,12.76 0.15,6.77 -5.96,13.23 -12.83,12.91 -4.96,0.13 -9.58,-3.26 -11.42,-7.78 -3.16,-7.49 -6.12,-15.07 -8.94,-22.7 z"
       fill="#152b44"
       opacity="1"
       stroke="#152b44"
       stroke-width="0.25"
       id="path6" />
    <path
       d="m 213.2,230.11 c 3.1,-5.14 6.11,-10.34 9.46,-15.32 22.5,0.1 45.01,0.09 67.51,0 3.2,5.01 6.23,10.12 9.53,15.07 -9.29,0.46 -18.6,0.12 -27.9,0.23 -0.05,4.08 -0.08,8.17 -0.01,12.25 -3.41,0.97 -7.39,2.59 -8.01,6.58 -0.44,6.05 -1.59,12.87 2.07,18.21 1.93,0.82 3.86,1.66 5.8,2.47 -0.78,7.29 5.41,13.72 12.51,14.22 1.16,2.55 2.45,5.02 3.75,7.5 -5.88,-0.04 -12.25,0.75 -17.52,-2.46 -3.84,-1.97 -6.57,-5.42 -8.35,-9.28 -3.71,-0.16 -7.43,-0.14 -11.15,-0.03 -2.24,4.15 -5.36,8.03 -9.79,9.96 -5.06,2.49 -10.86,1.7 -16.29,1.84 1.25,-2.56 2.54,-5.09 3.75,-7.66 7.4,-0.18 13.43,-7.26 12.4,-14.61 1.71,-2.02 3.8,-4.19 3.73,-7.03 0.17,-4.38 0.23,-8.78 -0.05,-13.15 -0.21,-2.7 -2.77,-4.32 -3.65,-6.73 -0.13,-3.99 0.26,-7.97 0.21,-11.96 -9.33,-0.68 -18.67,0.03 -28,-0.1 z"
       fill="#152b44"
       opacity="1"
       stroke="#152b44"
       stroke-width="0.25"
       id="path7" />
    <path
       d="m 301.49,251.03 c 0.25,-5.53 -0.87,-11.33 1.32,-16.59 0.21,1.78 0.42,3.56 0.62,5.34 0.44,-1.01 0.87,-2.02 1.32,-3.03 0.67,8.41 0.35,16.85 0.22,25.27 0.1,2.26 -0.97,4.27 -2.12,6.13 -2.31,-5.43 -1.1,-11.41 -1.36,-17.12 z"
       fill="#ececec"
       opacity="1"
       stroke="#ececec"
       stroke-width="0.25"
       id="path8" />
    <path
       d="m 134.94,240.21 c 1.49,7.13 1.6,14.48 -0.05,21.6 -0.82,-7.16 -0.7,-14.44 0.05,-21.6 z"
       fill="#0f2030"
       opacity="1"
       stroke="#0f2030"
       stroke-width="0.25"
       id="path9" />
    <path
       d="m 254.59,246.43 c 1.55,-2.27 4.01,-3.4 6.59,-4.09 0.04,2.06 0.04,4.12 0.09,6.19 -1.78,0.37 -3.54,0.76 -5.31,1.15 -2.26,6.06 -0.86,12.65 -1.29,18.96 -1.95,-0.04 -3.89,-0.08 -5.83,-0.12 0.04,-8.38 0,-16.76 -0.01,-25.13 1.91,-0.04 3.83,-0.06 5.76,-0.1 0,0.79 0,2.36 0,3.14 z"
       fill="#fdffff"
       opacity="1"
       stroke="#fdffff"
       stroke-width="0.25"
       id="path10" />
    <path
       d="m 164.08,249.3 c 1.75,-1.78 3.48,-3.57 5.18,-5.39 2.48,2.1 1.36,5.4 1.32,8.2 -0.43,4.7 0,9.42 0.52,14.1 -0.74,0.5 -1.47,1.01 -2.2,1.53 -1.65,-1.87 -3.21,-3.82 -4.53,-5.94 -0.96,-4.09 -0.36,-8.35 -0.29,-12.5 z"
       fill="#f1f1f1"
       opacity="1"
       stroke="#f1f1f1"
       stroke-width="0.25"
       id="path11" />
    <path
       d="m 225.15,243.38 c 2.69,4.03 2.25,9 2.28,13.61 -0.04,6.24 0.1,12.58 -1.6,18.66 -0.65,0.02 -1.97,0.08 -2.63,0.11 0.33,-7.97 0.49,-15.93 0.21,-23.9 -0.26,-2.95 0.64,-5.79 1.74,-8.48 z"
       fill="#ecebe9"
       opacity="1"
       stroke="#ecebe9"
       stroke-width="0.25"
       id="path12" />
    <path
       d="m 279.41,245.1 c 1.75,-0.16 3.5,-0.41 5.22,-0.8 -1.02,8.22 -1.83,16.71 1.07,24.68 -1.53,-0.94 -3.06,-1.89 -4.59,-2.82 -0.69,0.47 -1.37,0.95 -2.05,1.44 2.44,-7.29 2.15,-15.11 0.35,-22.5 z"
       fill="#ebedec"
       opacity="1"
       stroke="#ebedec"
       stroke-width="0.25"
       id="path13" />
    <path
       d="m 333.13,243.59 c 1.06,1.33 2.5,2.63 2.5,4.47 0.37,5.21 0.41,10.48 -0.07,15.68 -0.03,1.9 -1.32,3.35 -2.44,4.74 -1.92,-8.08 -2.12,-16.83 0.01,-24.89 z"
       fill="#ededed"
       opacity="1"
       stroke="#ededed"
       stroke-width="0.25"
       id="path14" />
    <path
       d="m 323.13,244.61 c 3.51,3.15 2.61,8.13 2.82,12.34 0.14,3.82 -0.15,7.71 -1.9,11.18 -2.59,-3.91 -2,-8.69 -2.07,-13.12 -0.05,-3.5 0.33,-7 1.15,-10.4 z"
       fill="#ebebeb"
       opacity="1"
       stroke="#ebebeb"
       stroke-width="0.25"
       id="path15" />
    <path
       d="m 187.49,261.01 c 0.61,-5.37 -0.12,-10.76 0.22,-16.14 4.94,2.92 3.66,9.3 3.73,14.12 0.13,3.46 -1.12,6.73 -3.8,8.98 -0.13,-2.32 -0.41,-4.64 -0.15,-6.96 z"
       fill="#eeeeee"
       opacity="1"
       stroke="#eeeeee"
       stroke-width="0.25"
       id="path16" />
    <path
       d="m 177,248.2 c 1.34,0 2.68,0.02 4.01,0.05 0.89,5.16 0.92,10.4 0.07,15.57 -1.36,0 -2.72,0 -4.08,-0.01 -1.1,-5.15 -1.15,-10.46 0,-15.61 z"
       fill="#e6e6e6"
       opacity="1"
       stroke="#e6e6e6"
       stroke-width="0.25"
       id="path17" />
    <path
       d="m 212.59,248.29 c 1.71,0.11 4.16,-0.77 4.62,1.59 0.65,3.96 0.32,7.99 0.07,11.96 -0.54,0.5 -1.62,1.49 -2.15,1.98 -0.84,-0.39 -1.67,-0.77 -2.46,-1.23 -1.08,-4.68 -0.56,-9.58 -0.08,-14.3 z"
       fill="#1b3248"
       opacity="1"
       stroke="#1b3248"
       stroke-width="0.25"
       id="path18" />
    <path
       d="m 234.56,247.93 c 1.21,0.24 2.5,0.28 3.63,0.85 1.06,4.26 0.74,8.79 0.3,13.11 -0.04,2.15 -2.5,1.87 -4,2.16 -1.66,-5.2 -1.54,-10.93 0.07,-16.12 z"
       fill="#192d46"
       opacity="1"
       stroke="#192d46"
       stroke-width="0.25"
       id="path19" />
    <path
       d="m 269.57,250.12 c -0.06,-2.58 4.94,-2.71 4.91,-0.01 0.53,4.49 0.28,9.04 -0.11,13.54 -1.57,-0.03 -3.14,-0.03 -4.7,0 -0.35,-4.5 -0.58,-9.04 -0.1,-13.53 z"
       fill="#1a2537"
       opacity="1"
       stroke="#1a2537"
       stroke-width="0.25"
       id="path20" />
    <path
       d="m 291.03,247.71 c 1.37,0.63 3.55,0.48 4.05,2.26 0.98,4.56 -0.08,9.25 -0.34,13.84 -1.28,0.01 -2.56,0.02 -3.84,0.03 -1.66,-5.28 -1.15,-10.83 0.13,-16.13 z"
       fill="#e6e6e6"
       opacity="1"
       stroke="#e6e6e6"
       stroke-width="0.25"
       id="path21" />
    <path
       d="m 311.37,249.32 c 0.46,-1.87 2.91,-0.82 4.26,-1.16 0.84,5.89 0.46,11.84 -0.51,17.69 -1.32,-0.48 -2.63,-0.96 -3.94,-1.43 -0.13,-5.02 -0.91,-10.14 0.19,-15.1 z"
       fill="#ebebeb"
       opacity="1"
       stroke="#ebebeb"
       stroke-width="0.25"
       id="path22" />
    <path
       d="m 342.1,248.15 c 1.28,-0.06 2.56,-0.12 3.84,-0.16 0.45,4.97 0.99,10.03 0.04,14.97 -0.15,1.76 -2,2.45 -3.09,3.54 -1.83,-5.96 -1.42,-12.24 -0.79,-18.35 z"
       fill="#ebebeb"
       opacity="1"
       stroke="#ebebeb"
       stroke-width="0.25"
       id="path23" />
    <path
       d="m 352.95,248.25 c 1.36,-0.05 2.72,-0.09 4.09,-0.12 0.7,5.37 0.42,10.78 -0.3,16.13 -0.44,-0.97 -0.86,-1.93 -1.29,-2.89 -0.58,1.21 -1.14,2.43 -1.7,3.65 -1.81,-5.4 -1.6,-11.2 -0.8,-16.77 z"
       fill="#e8e8e8"
       opacity="1"
       stroke="#e8e8e8"
       stroke-width="0.25"
       id="path24" />
    <path
       d="m 271.24,250.95 c 0.4,0.02 1.2,0.06 1.59,0.09 0.08,3.18 0.43,6.39 0,9.56 -0.45,0.25 -1.35,0.75 -1.8,1 0,-3.55 0.12,-7.1 0.21,-10.65 z"
       fill="#21354e"
       opacity="1"
       stroke="#21354e"
       stroke-width="0.25"
       id="path25" />
    <path
       d="m 207.83,268.73 c 3.38,-0.06 6.71,-0.65 9.93,-1.63 -0.38,2.01 0.57,5.07 -1.74,6.12 -3.42,0.67 -6.01,-2.29 -8.19,-4.49 z"
       fill="#e9e9ed"
       opacity="1"
       stroke="#e9e9ed"
       stroke-width="0.25"
       id="path26" />
    <path
       d="m 175.82,291.82 c 1.26,-3.45 3.95,-6.31 7.34,-7.72 5.6,-2.28 12.28,0.38 15.16,5.62 3.25,5.57 1.7,13.37 -3.51,17.22 -7.74,6.19 -18.27,6.1 -27.68,6.42 2.67,-7.27 5.86,-14.33 8.69,-21.54 z"
       fill="#162c44"
       opacity="1"
       stroke="#162c44"
       stroke-width="0.25"
       id="path27" />
    <path
       d="m 317.38,286.36 c 5.51,-5.43 15.76,-3.2 18.75,3.87 3.45,7.6 6.36,15.45 9.57,23.17 -9.83,-0.29 -21.02,-0.38 -28.77,-7.35 -5.85,-4.96 -5.6,-15.01 0.45,-19.69 z"
       fill="#162c44"
       opacity="1"
       stroke="#162c44"
       stroke-width="0.25"
       id="path28" />
    <path
       d="m 244.01,339.22 c -2.02,-8 5.72,-16.68 13.92,-15.26 3.32,0.37 5.95,2.54 8.4,4.6 1.96,3.42 3.65,7.42 2.25,11.38 -2.45,7.94 -7.48,14.76 -12.36,21.36 -4.63,-6.99 -10.27,-13.74 -12.21,-22.08 z"
       fill="#162c44"
       opacity="1"
       stroke="#162c44"
       stroke-width="0.25"
       id="path29" />
  </g>
</svg>
